<?xml version="1.0" standalone="no"?><!DOCTYPE svg PUBLIC "-//W3C//DTD SVG 1.1//EN" "http://www.w3.org/Graphics/SVG/1.1/DTD/svg11.dtd"><svg width="64" height="64" viewBox="0 0 64 64" version="1.1" xmlns="http://www.w3.org/2000/svg" xmlns:xlink="http://www.w3.org/1999/xlink"><defs><style type="text/css"><![CDATA[
@font-face { font-family: ifont; src: url(http://at.alicdn.com/t/font_1442373896_4754455.eot?#iefix) format(embedded-opentype), url(http://at.alicdn.com/t/font_1442373896_4754455.woff) format(woff), url(http://at.alicdn.com/t/font_1442373896_4754455.ttf) format(truetype), url(http://at.alicdn.com/t/font_1442373896_4754455.svg#ifont) format(svg); }

]]></style></defs><g class="transform-group"><g transform="scale(0.0625, 0.0625)"><path d="M979.293287 469.090724c0-252.198929-204.464765-456.643228-456.644251-456.643228-252.218372 0-456.645275 204.444299-456.645275 456.643228 0 177.290869 101.025904 330.99453 248.660336 406.65779-38.860053 37.738509-66.568115 86.948281-77.746712 142.111648l538.6428 0c-10.1645-50.031487-33.890878-95.053889-67.138096-131.199111-0.74906 0.23536-1.508353 0.474814-2.26253 0.712221C866.975199 816.706817 979.293287 656.010905 979.293287 469.090724zM522.649036 895.798153c-235.659231 0-426.697195-191.038988-426.697195-426.697195S286.990828 42.403762 522.649036 42.403762c235.658208 0 426.697195 191.038988 426.697195 426.697195S758.307244 895.798153 522.649036 895.798153zM527.230378 190.412724c-151.813614 0-274.851858 123.05564-274.851858 274.849812 0 151.811568 123.037221 274.833439 274.851858 274.833439 151.775752 0 274.850835-123.022894 274.850835-274.833439C802.08019 313.468364 679.00613 190.412724 527.230378 190.412724zM525.082458 650.28039c-100.875478 0-182.650947-81.775468-182.650947-182.650947 0-100.875478 81.775468-182.650947 182.650947-182.650947s182.650947 81.775468 182.650947 182.650947C707.733405 568.504922 625.957937 650.28039 525.082458 650.28039zM525.032316 285.258882c-100.461039 0-181.880397 81.420381-181.880397 181.879374 0 100.461039 81.419358 181.88142 181.880397 181.88142 100.457969 0 181.880397-81.420381 181.880397-181.88142C706.912713 366.679263 625.490286 285.258882 525.032316 285.258882zM464.996988 454.990588c-30.125111 0-54.562686-24.40483-54.562686-54.54529 0-30.141484 24.437575-54.565756 54.562686-54.565756 30.160927 0 54.599526 24.424272 54.599526 54.565756C519.597537 430.585759 495.157915 454.990588 464.996988 454.990588z" fill="#272636"></path></g></g></svg>